<?xml version="1.0" standalone="no"?><!DOCTYPE svg PUBLIC "-//W3C//DTD SVG 1.1//EN" "http://www.w3.org/Graphics/SVG/1.1/DTD/svg11.dtd"><svg t="1752999512458" class="icon" viewBox="0 0 1024 1024" version="1.1" xmlns="http://www.w3.org/2000/svg" p-id="1860" xmlns:xlink="http://www.w3.org/1999/xlink" width="16" height="16"><path d="M449.391936 610.312443H194.170369c-20.416889 0-34.021183 13.604294-34.021183 34.021183 0 20.416889 13.604294 34.042081 34.021183 34.042081h255.221567c20.416889 0 34.021183-13.625191 34.021183-34.042081s-13.604294-34.021183-34.021183-34.021183zM290.654278 236.016734c18.452521-5.976694 36.92594-11.201078 56.506928-9.132221 17.721108 2.612192 30.970143 11.911594 36.92594 28.337054 4.66015 11.201078 7.272341 23.133569 10.448767 36.194527 2.047958-2.612192 3.343605-4.66015 4.660149-6.540928 9.153119-13.792372 18.473419-28.337054 28.922186-40.833779 5.224383-6.540928 12.496725-12.496725 20.333299-16.425461 14.544683-7.272341 30.196935-3.343605 38.242485 7.836575 7.815677 11.201078 7.251444 30.217832-2.068856 41.41891-11.18018 13.228138-25.74576 14.544683-41.398012 12.496724-3.364503-0.752311-7.272341-1.316545-10.448766-2.612191-9.884533-5.224383-15.861227-0.752311-21.649844 6.52003-13.228138 16.404563-13.792372 15.861227-7.815678 36.194527 3.907839 15.108916 8.567988 30.949246 13.792372 46.058162 7.272341 21.628946 19.769066 28.357952 42.150323 23.133568 3.928736-1.316545 7.836575-2.047958 12.496725-3.343605 0.752311 12.475827-2.047958 16.404563-13.228138 21.064713-19.016755 7.272341-38.242485 13.228138-59.328096 11.18018-19.016755-2.047958-33.561438-11.911594-39.538131-30.217832-3.907839-11.18018-6.52003-23.112671-10.448767-36.173629-2.047958 2.612192-3.343605 4.66015-4.66015 6.52003-9.884533 13.792372-19.016755 28.357952-30.217832 42.150323a50.90639 50.90639 0 0 1-18.452521 14.565581c-14.56558 7.272341-30.970143 3.343605-39.55903-7.836575-8.567988-11.201078-7.272341-30.970143 3.364503-42.150324 11.201078-13.249036 26.309994-13.792372 42.150324-11.201077 3.928736 0.752311 7.836575 1.316545 11.201077 2.612192 7.836575 3.907839 13.228138 1.295647 17.721108-5.224384 3.343605-4.66015 7.836575-8.567988 10.448766-13.792371 2.047958-2.612192 2.591294-7.272341 2.047958-9.884533-5.224383-18.473419-10.448766-36.946838-15.861227-55.211282-7.272341-24.450113-20.333299-30.970143-44.762515-24.450113-2.424114-0.16718-6.35285 1.128467-9.696455 1.880778-1.316545-13.792372 5.955797-19.769066 17.721108-23.133569zM533.483608 190.689986h31.534376c2.047958 0 5.224383 2.047958 6.520031 3.928736 30.970143 47.374707 41.41891 98.657252 34.146568 154.620845-4.681047 40.102365-23.133569 74.395216-44.031101 107.977551-0.731414 1.316545-3.343605 3.364503-4.66015 3.364503h-32.809126c50.90639-88.960797 53.497684-177.754413 9.299402-269.891635zM219.017536 460.393543H187.504056c-2.047958 0-4.66015-1.295647-5.224383-2.612192-19.769066-30.949246-37.490174-63.215036-43.466868-99.973796-8.567988-58.011551 0.752311-111.906288 32.830024-161.328953 1.316545-2.612192 5.224383-4.66015 7.836575-4.660149 9.884533-0.752311 19.769066 0 30.217832 0-43.466868 90.277341-40.854676 179.802371 9.3203 268.57509z" fill="#000000" p-id="1861"></path><path d="M439.173043 851.908818H112.502811c-20.416889 0-34.021183-13.604294-34.021183-34.021183V103.296504c0-20.416889 13.604294-34.042081 34.021183-34.042081h578.485501c20.416889 0 34.021183 13.625191 34.021183 34.042081v306.253342c0 20.416889 13.604294 34.021183 34.021183 34.021183 20.416889 0 34.042081-13.604294 34.042081-34.021183V103.296504c0-57.865268-44.240077-102.084447-102.084447-102.084447H112.502811C54.658441 1.212057 10.418364 45.431236 10.418364 103.296504v714.591131c0 57.844371 44.240077 102.084447 102.084447 102.084447h326.670232c20.416889 0 34.021183-13.625191 34.021183-34.042081s-17.010592-34.021183-34.021183-34.021183z" fill="#000000" p-id="1862"></path><path d="M811.52528 1023.979102h-118.48901c-14.56558 0-26.330891-11.660823-26.330891-26.121915v-51.491521a206.15416 206.15416 0 0 1-31.994123-18.264444l-44.929695 25.703966a26.456276 26.456276 0 0 1-35.943756-9.550173l-59.265403-101.770984a25.996531 25.996531 0 0 1 9.633762-35.651191l44.846106-25.703965a197.314504 197.314504 0 0 1-0.898594-18.368931c0-6.039387 0.313463-12.162364 0.898594-18.368932l-44.846106-25.703965a25.996531 25.996531 0 0 1-9.612865-35.651191l59.223608-101.770984a26.456276 26.456276 0 0 1 35.943756-9.550172l44.929696 25.703965c10.030816-7.000673 20.75125-13.123651 32.01502-18.264444V527.662701c0-14.461093 11.765311-26.121916 26.330891-26.121916h118.48901c14.56558 0 26.330891 11.660823 26.330891 26.121916v51.49152c11.284668 5.140793 21.879717 11.26377 31.994123 18.264444l44.929695-25.703965a26.456276 26.456276 0 0 1 35.943757 9.550172l59.244505 101.770984c3.46899 5.955797 4.451174 13.123651 2.633089 19.831759-1.797188 6.68721-6.248362 12.392237-12.245954 15.819432l-44.846105 25.703965c0.585131 6.206567 0.898594 12.245954 0.898593 18.368932 0 6.122977-0.313463 12.162364-0.898593 18.368931l44.846105 25.703965c5.997592 3.427195 10.448766 9.132222 12.245954 15.819432 1.818085 6.68721 0.835901 13.792372-2.633089 19.852656l-59.223608 101.750087c-7.251444 12.475827-23.384339 16.718026-35.964654 9.550173l-44.929695-25.703966c-10.030816 7.000673-20.730352 13.123651-31.994123 18.264444v51.491521c0 14.461093-11.765311 26.121916-26.330891 26.121915z m-92.158119-52.243831h65.827228v-42.902635c0-11.09659 7.000673-20.897533 17.512132-24.659089a150.880186 150.880186 0 0 0 47.813555-27.333972 26.498071 26.498071 0 0 1 30.280525-2.779372l37.427481 21.461766 32.913614-56.548724-37.343891-21.461766a26.163711 26.163711 0 0 1-12.747495-27.333972c1.797188-9.612865 2.612192-18.598804 2.612192-27.417563a154.223791 154.223791 0 0 0-2.633089-27.417563 25.871145 25.871145 0 0 1 12.747495-27.333973l37.448378-21.461766-32.913614-56.548724-37.427481 21.461766c-9.612865 5.537846-21.817024 4.388482-30.280525-2.779371a150.880186 150.880186 0 0 0-47.813554-27.333973 26.226404 26.226404 0 0 1-17.595723-24.659089V553.784617h-65.827228v42.923532c0 11.09659-7.000673 20.897533-17.53303 24.659088A150.880186 150.880186 0 0 0 654.062371 648.659415a26.498071 26.498071 0 0 1-30.301422 2.779372l-37.406584-21.461766-32.913614 56.548723 37.427481 21.461766c9.612865 5.537846 14.732761 16.488153 12.747495 27.333973a148.226199 148.226199 0 0 0-2.633089 27.417563c0 8.818759 0.919491 17.7838 2.633089 27.417563 1.985266 10.866717-3.13463 21.796127-12.747495 27.333973l-37.427481 21.461766 32.892717 56.548723 37.448378-21.461766a26.498071 26.498071 0 0 1 30.280525 2.779372 150.880186 150.880186 0 0 0 47.792658 27.333973c10.532356 3.677966 17.53303 13.562499 17.53303 24.659089V971.735271z" fill="#000000" p-id="1863"></path><path d="M752.280775 705.291729a57.530908 57.530908 0 0 1 57.468215 57.468215 57.530908 57.530908 0 0 1-57.468215 57.468215 57.530908 57.530908 0 0 1-57.468215-57.468215 57.530908 57.530908 0 0 1 57.468215-57.468215z m0-57.468215a114.93643 114.93643 0 1 0 0 229.87286 114.93643 114.93643 0 0 0 0-229.87286z" fill="#000000" p-id="1864"></path></svg>